<svg xmlns="http://www.w3.org/2000/svg" xmlns:xlink="http://www.w3.org/1999/xlink" width="500" zoomAndPan="magnify" viewBox="0 0 375 374.999991" height="500" preserveAspectRatio="xMidYMid meet" version="1.0"><defs><g/><clipPath id="c8e6d9488c"><path d="M 192 99.613281 L 220 99.613281 L 220 128 L 192 128 Z M 192 99.613281 " clip-rule="nonzero"/></clipPath><clipPath id="6d77c8e853"><path d="M 124.429688 137 L 250.429688 137 L 250.429688 197.863281 L 124.429688 197.863281 Z M 124.429688 137 " clip-rule="nonzero"/></clipPath></defs><rect x="-37.5" width="450" fill="#ffffff" y="-37.499999" height="449.999989" fill-opacity="1"/><rect x="-37.5" width="450" fill="#ffffff" y="-37.499999" height="449.999989" fill-opacity="1"/><path fill="#e5ad25" d="M 155.488281 135.082031 L 155.453125 135.082031 L 155.449219 140.03125 C 156.585938 139.269531 162.578125 135.488281 163.34375 135.125 L 172.070312 135.125 C 175.078125 135.125 177.523438 132.683594 177.523438 129.671875 L 177.523438 118.34375 C 177.523438 115.335938 175.078125 112.894531 172.070312 112.894531 L 156.164062 112.894531 C 153.152344 112.894531 150.710938 115.335938 150.710938 118.34375 L 150.710938 129.671875 C 150.707031 132.457031 152.796875 134.746094 155.488281 135.082031 Z M 155.488281 135.082031 " fill-opacity="1" fill-rule="nonzero"/><g clip-path="url(#c8e6d9488c)"><path fill="#e5ad25" d="M 197.671875 121.96875 L 205.621094 121.96875 C 206.386719 122.332031 213.125 127.066406 214.265625 127.824219 L 214.289062 121.921875 L 214.25 121.921875 C 216.941406 121.59375 219.027344 119.296875 219.027344 116.519531 L 219.027344 105.191406 C 219.027344 102.179688 216.589844 99.738281 213.574219 99.738281 L 197.671875 99.738281 C 194.65625 99.738281 192.214844 102.179688 192.214844 105.191406 L 192.214844 116.519531 C 192.214844 119.527344 194.65625 121.96875 197.671875 121.96875 Z M 197.671875 121.96875 " fill-opacity="1" fill-rule="nonzero"/></g><path fill="#e5ad25" d="M 238.296875 126.027344 C 238.296875 126.601562 238.242188 127.171875 238.128906 127.734375 C 238.015625 128.300781 237.851562 128.847656 237.628906 129.378906 C 237.410156 129.910156 237.140625 130.414062 236.820312 130.894531 C 236.5 131.371094 236.136719 131.8125 235.730469 132.222656 C 235.324219 132.628906 234.882812 132.992188 234.40625 133.308594 C 233.925781 133.628906 233.421875 133.898438 232.890625 134.121094 C 232.359375 134.339844 231.8125 134.507812 231.246094 134.617188 C 230.683594 134.730469 230.113281 134.785156 229.539062 134.785156 C 228.960938 134.785156 228.394531 134.730469 227.828125 134.617188 C 227.265625 134.507812 226.71875 134.339844 226.1875 134.121094 C 225.652344 133.898438 225.148438 133.628906 224.671875 133.308594 C 224.191406 132.992188 223.75 132.628906 223.34375 132.222656 C 222.9375 131.8125 222.574219 131.371094 222.253906 130.894531 C 221.933594 130.414062 221.664062 129.910156 221.445312 129.378906 C 221.226562 128.847656 221.058594 128.300781 220.945312 127.734375 C 220.835938 127.171875 220.777344 126.601562 220.777344 126.027344 C 220.777344 125.453125 220.835938 124.882812 220.945312 124.316406 C 221.058594 123.753906 221.226562 123.207031 221.445312 122.675781 C 221.664062 122.144531 221.933594 121.636719 222.253906 121.160156 C 222.574219 120.683594 222.9375 120.238281 223.34375 119.832031 C 223.75 119.425781 224.191406 119.0625 224.671875 118.742188 C 225.148438 118.425781 225.652344 118.152344 226.1875 117.933594 C 226.71875 117.714844 227.265625 117.546875 227.828125 117.4375 C 228.394531 117.324219 228.960938 117.265625 229.539062 117.265625 C 230.113281 117.265625 230.683594 117.324219 231.246094 117.4375 C 231.8125 117.546875 232.359375 117.714844 232.890625 117.933594 C 233.421875 118.152344 233.925781 118.425781 234.40625 118.742188 C 234.882812 119.0625 235.324219 119.425781 235.730469 119.832031 C 236.136719 120.238281 236.5 120.683594 236.820312 121.160156 C 237.140625 121.636719 237.410156 122.144531 237.628906 122.675781 C 237.851562 123.207031 238.015625 123.753906 238.128906 124.316406 C 238.242188 124.882812 238.296875 125.453125 238.296875 126.027344 Z M 238.296875 126.027344 " fill-opacity="1" fill-rule="nonzero"/><path fill="#e5ad25" d="M 150.707031 140.917969 C 150.707031 141.320312 150.667969 141.71875 150.589844 142.113281 C 150.511719 142.507812 150.394531 142.890625 150.242188 143.265625 C 150.085938 143.636719 149.898438 143.988281 149.675781 144.324219 C 149.453125 144.660156 149.199219 144.96875 148.914062 145.253906 C 148.628906 145.539062 148.316406 145.792969 147.984375 146.015625 C 147.648438 146.238281 147.296875 146.429688 146.921875 146.582031 C 146.550781 146.734375 146.167969 146.851562 145.773438 146.929688 C 145.378906 147.007812 144.980469 147.050781 144.578125 147.050781 C 144.175781 147.050781 143.777344 147.007812 143.382812 146.929688 C 142.988281 146.851562 142.601562 146.734375 142.230469 146.582031 C 141.859375 146.429688 141.503906 146.238281 141.171875 146.015625 C 140.835938 145.792969 140.527344 145.539062 140.242188 145.253906 C 139.957031 144.96875 139.703125 144.660156 139.480469 144.324219 C 139.253906 143.988281 139.066406 143.636719 138.914062 143.265625 C 138.757812 142.890625 138.640625 142.507812 138.5625 142.113281 C 138.484375 141.71875 138.445312 141.320312 138.445312 140.917969 C 138.445312 140.515625 138.484375 140.117188 138.5625 139.722656 C 138.640625 139.328125 138.757812 138.945312 138.914062 138.570312 C 139.066406 138.199219 139.253906 137.847656 139.480469 137.511719 C 139.703125 137.175781 139.957031 136.867188 140.242188 136.582031 C 140.527344 136.296875 140.835938 136.042969 141.171875 135.820312 C 141.503906 135.597656 141.859375 135.40625 142.230469 135.253906 C 142.601562 135.097656 142.988281 134.984375 143.382812 134.90625 C 143.777344 134.824219 144.175781 134.785156 144.578125 134.785156 C 144.980469 134.785156 145.378906 134.824219 145.773438 134.90625 C 146.167969 134.984375 146.550781 135.097656 146.921875 135.253906 C 147.296875 135.40625 147.648438 135.597656 147.984375 135.820312 C 148.316406 136.042969 148.628906 136.296875 148.914062 136.582031 C 149.199219 136.867188 149.453125 137.175781 149.675781 137.511719 C 149.898438 137.847656 150.085938 138.199219 150.242188 138.570312 C 150.394531 138.945312 150.511719 139.328125 150.589844 139.722656 C 150.667969 140.117188 150.707031 140.515625 150.707031 140.917969 Z M 150.707031 140.917969 " fill-opacity="1" fill-rule="nonzero"/><g clip-path="url(#6d77c8e853)"><path fill="#e5ad25" d="M 245.246094 144.453125 L 242.238281 173.328125 L 234.8125 173.328125 C 237.257812 173.328125 239.347656 171.886719 240.332031 169.824219 C 240.683594 169.082031 240.894531 168.265625 240.921875 167.398438 L 240.921875 145.296875 C 240.921875 140.941406 237.394531 137.414062 233.039062 137.414062 C 229.71875 137.414062 226.894531 139.472656 225.730469 142.378906 L 222.210938 148.800781 L 210.269531 148.800781 C 208.332031 148.800781 206.765625 150.367188 206.765625 152.304688 C 206.765625 154.238281 208.332031 155.808594 210.269531 155.808594 L 227.039062 155.808594 L 233.257812 144.453125 L 237.257812 144.453125 L 229.117188 159.308594 L 225.15625 159.308594 L 225.15625 161.0625 C 225.15625 163.472656 222.976562 164.160156 222.976562 164.160156 L 215.523438 166.246094 L 215.523438 159.308594 L 159.464844 159.308594 L 159.464844 168.007812 L 152.746094 166.535156 C 149.433594 165.863281 149.28125 164.5625 148.953125 163.277344 L 148.953125 162.933594 L 145.941406 163.722656 C 145.414062 163.855469 144.773438 163.984375 144.128906 163.984375 C 143.445312 163.984375 142.757812 163.839844 142.1875 163.398438 C 141.492188 162.855469 141.144531 162.003906 141.144531 160.859375 L 141.144531 154.042969 L 143.769531 154.042969 C 143.769531 154.042969 143.777344 160.9375 143.78125 160.980469 C 143.78125 160.992188 143.789062 160.992188 143.792969 161.003906 C 143.792969 161.019531 143.777344 161.023438 143.777344 161.035156 C 143.777344 161.285156 143.976562 161.488281 144.230469 161.488281 L 156.011719 158.320312 L 159.257812 157.457031 L 159.253906 157.449219 C 160.382812 157.15625 161.214844 156.136719 161.214844 154.917969 C 161.214844 153.46875 160.039062 152.289062 158.589844 152.289062 C 158.355469 152.289062 158.136719 152.328125 157.921875 152.386719 L 157.921875 152.375 L 148.953125 154.738281 L 148.953125 154.050781 C 148.953125 152.699219 148.429688 151.480469 147.589844 150.550781 C 146.628906 149.480469 145.25 148.796875 143.699219 148.796875 C 142.148438 148.796875 140.769531 149.480469 139.804688 150.550781 C 138.96875 151.480469 138.441406 152.699219 138.441406 154.050781 L 138.441406 168.941406 C 138.441406 171.363281 140.402344 173.324219 142.824219 173.324219 C 142.992188 173.324219 143.152344 173.292969 143.3125 173.273438 L 143.3125 173.300781 L 143.511719 173.324219 L 132.753906 173.324219 L 129.742188 144.453125 L 124.429688 144.453125 L 127.933594 177.804688 L 127.933594 197.851562 L 133.1875 197.851562 L 133.1875 178.582031 L 150.707031 178.582031 L 150.707031 197.851562 L 155.964844 197.851562 L 155.964844 174.707031 L 157.394531 174.867188 L 159.464844 178.183594 L 159.464844 197.851562 L 166.472656 197.851562 L 166.472656 188.613281 C 166.988281 188.914062 167.582031 189.09375 168.226562 189.09375 C 170.160156 189.09375 171.726562 187.523438 171.726562 185.589844 C 171.726562 184.90625 171.523438 184.277344 171.1875 183.738281 L 171.195312 183.734375 L 166.472656 176.179688 L 166.472656 166.320312 L 208.515625 166.320312 L 208.515625 168.195312 C 207.414062 168.421875 206.453125 169.035156 205.824219 169.925781 L 205.816406 169.917969 L 190.929688 190.9375 L 190.9375 190.945312 C 190.425781 191.660156 190.121094 192.527344 190.121094 193.472656 C 190.121094 195.890625 192.082031 197.851562 194.503906 197.851562 C 195.980469 197.851562 197.273438 197.117188 198.070312 196 L 198.078125 196.003906 L 208.515625 181.265625 L 208.515625 197.851562 L 215.523438 197.851562 L 215.523438 175.945312 L 219.027344 175.410156 L 219.027344 197.851562 L 224.285156 197.851562 L 224.285156 178.582031 L 241.800781 178.582031 L 241.800781 197.851562 L 247.058594 197.851562 L 247.058594 177.804688 L 250.558594 144.453125 Z M 245.246094 144.453125 " fill-opacity="1" fill-rule="nonzero"/></g><g fill="#001447" fill-opacity="1"><g transform="translate(111.77483, 237.377708)"><g><path d="M 5.28125 -17.824219 L 6.828125 -17.824219 C 7.890625 -17.824219 8.625 -17.214844 8.625 -15.902344 L 8.625 -5.671875 C 8.625 -4.609375 7.953125 -3.796875 6.90625 -3.765625 L 5.28125 -3.765625 Z M 1.125 -0.59375 C 1.125 -0.21875 1.296875 0 1.65625 0 L 7.109375 0 C 10.296875 -0.03125 12.777344 -1.953125 12.777344 -5.546875 L 12.777344 -16.074219 C 12.777344 -19.652344 10.3125 -21.589844 7.078125 -21.621094 L 1.65625 -21.621094 C 1.328125 -21.621094 1.125 -21.386719 1.125 -21.011719 Z M 1.125 -0.59375 "/></g></g></g><g fill="#001447" fill-opacity="1"><g transform="translate(126.934019, 237.377708)"><g><path d="M 12.453125 -16.527344 C 12.453125 -19.933594 9.734375 -21.949219 6.59375 -21.949219 C 3.46875 -21.949219 0.78125 -19.917969 0.78125 -16.527344 L 0.78125 -5.078125 C 0.78125 -1.765625 3.46875 0.34375 6.59375 0.34375 C 9.734375 0.34375 12.453125 -1.6875 12.453125 -5.078125 Z M 6.625 -18.199219 C 7.671875 -18.199219 8.296875 -17.292969 8.296875 -16.292969 L 8.296875 -5.203125 C 8.296875 -4.21875 7.671875 -3.421875 6.59375 -3.421875 C 5.53125 -3.421875 4.9375 -4.3125 4.9375 -5.296875 L 4.9375 -16.292969 C 4.9375 -17.292969 5.5625 -18.199219 6.625 -18.199219 Z M 6.625 -18.199219 "/></g></g></g><g fill="#001447" fill-opacity="1"><g transform="translate(141.765163, 237.377708)"><g><path d="M 4.59375 -21.621094 C 4.28125 -21.621094 3.96875 -21.417969 3.859375 -21.136719 C 2.359375 -17.246094 1.828125 -14.339844 1.828125 -10.828125 C 1.828125 -7.3125 2.359375 -4.375 3.890625 -0.453125 C 4 -0.15625 4.28125 0 4.578125 0 L 7.421875 0 C 7.796875 0 7.9375 -0.46875 7.828125 -0.71875 C 6.125 -4.375 5.609375 -7.265625 5.59375 -10.8125 C 5.609375 -14.339844 6.125 -17.199219 7.84375 -20.917969 C 7.953125 -21.167969 7.828125 -21.621094 7.4375 -21.621094 Z M 4.59375 -21.621094 "/></g></g></g><g fill="#001447" fill-opacity="1"><g transform="translate(152.40983, 237.377708)"><g><path d="M 11.15625 0 C 11.421875 0 11.625 -0.1875 11.625 -0.53125 L 11.625 -11.46875 C 11.625 -14.121094 9.640625 -16.292969 6.15625 -16.292969 C 3.078125 -16.292969 0.921875 -13.980469 0.921875 -11.453125 L 0.921875 -0.546875 C 0.921875 -0.1875 1.125 0 1.390625 0 L 4.4375 0 C 4.703125 0 4.875 -0.1875 4.875 -0.546875 L 4.875 -11.46875 C 4.921875 -12.1875 5.421875 -12.824219 6.28125 -12.824219 C 7.125 -12.824219 7.625 -12.203125 7.671875 -11.484375 L 7.671875 -0.53125 C 7.671875 -0.1875 7.875 0 8.140625 0 Z M 11.15625 0 "/></g></g></g><g fill="#001447" fill-opacity="1"><g transform="translate(166.569264, 237.377708)"><g><path d="M 7.390625 -4.640625 C 7.390625 -3.609375 6.65625 -3.171875 6 -3.171875 C 5.296875 -3.171875 4.484375 -3.65625 4.484375 -4.859375 L 4.484375 -5.09375 C 4.484375 -6.109375 4.953125 -7.015625 6.65625 -7.015625 L 7.390625 -7.015625 Z M 5.546875 -9.84375 C 2.90625 -9.859375 0.53125 -8.453125 0.53125 -5.140625 L 0.53125 -4.796875 C 0.53125 -1.171875 3.5 0.296875 5.953125 0.296875 C 7.625 0.296875 11.328125 -0.609375 11.328125 -4.5 L 11.328125 -11.3125 C 11.328125 -14.558594 8.640625 -16.292969 6.0625 -16.292969 C 3.875 -16.292969 2.65625 -15.636719 1.515625 -14.933594 C 0.984375 -14.621094 1.046875 -14.308594 1.1875 -14.011719 L 1.96875 -12.28125 C 2.046875 -12.140625 2.140625 -12.078125 2.265625 -12.078125 C 2.40625 -12.078125 2.5625 -12.15625 2.71875 -12.25 C 3.296875 -12.667969 4.140625 -13.074219 5.421875 -13.074219 C 6.828125 -13.074219 7.390625 -11.890625 7.390625 -10.9375 L 7.390625 -9.828125 Z M 5.546875 -9.84375 "/></g></g></g><g fill="#001447" fill-opacity="1"><g transform="translate(180.166332, 237.377708)"><g><path d="M 5.171875 0 C 5.46875 0 5.75 -0.15625 5.859375 -0.453125 C 7.375 -4.375 7.90625 -7.3125 7.90625 -10.828125 C 7.90625 -14.339844 7.375 -17.246094 5.875 -21.136719 C 5.765625 -21.417969 5.453125 -21.621094 5.140625 -21.621094 L 2.296875 -21.621094 C 1.921875 -21.621094 1.78125 -21.167969 1.90625 -20.917969 C 3.609375 -17.199219 4.125 -14.339844 4.140625 -10.828125 C 4.125 -7.28125 3.625 -4.390625 1.90625 -0.71875 C 1.796875 -0.46875 1.953125 0 2.328125 0 Z M 5.171875 0 "/></g></g></g><g fill="#001447" fill-opacity="1"><g transform="translate(190.810996, 237.377708)"><g><path d="M 8.484375 -5.3125 C 8.484375 -4.328125 7.875 -3.421875 6.828125 -3.421875 C 5.765625 -3.421875 5.15625 -4.328125 5.15625 -5.3125 L 5.15625 -21.011719 C 5.15625 -21.339844 5.0625 -21.621094 4.6875 -21.621094 L 1.390625 -21.621094 C 1.171875 -21.621094 0.984375 -21.339844 0.984375 -21.011719 L 0.984375 -5.078125 C 0.984375 -2.078125 3.6875 0.34375 6.8125 0.34375 C 9.9375 0.34375 12.652344 -2.078125 12.652344 -5.078125 L 12.652344 -20.996094 C 12.652344 -21.308594 12.496094 -21.621094 12.15625 -21.621094 L 8.984375 -21.621094 C 8.65625 -21.621094 8.484375 -21.324219 8.484375 -20.996094 Z M 8.484375 -5.3125 "/></g></g></g><g fill="#001447" fill-opacity="1"><g transform="translate(206.048288, 237.377708)"><g><path d="M 12.140625 -16.449219 C 12.140625 -19.199219 10.40625 -21.949219 6.609375 -21.949219 C 3.203125 -21.949219 0.78125 -19.621094 0.78125 -16.527344 L 0.78125 -5.078125 C 0.78125 -1.6875 3.46875 0.34375 6.609375 0.34375 C 9.734375 0.34375 12.234375 -1.6875 12.234375 -5.078125 L 12.234375 -7.203125 C 12.234375 -7.671875 12.078125 -7.78125 11.71875 -7.78125 L 8.796875 -7.78125 C 8.4375 -7.78125 8.328125 -7.640625 8.328125 -7.171875 L 8.328125 -5.3125 C 8.328125 -4.328125 7.78125 -3.421875 6.640625 -3.421875 C 5.5625 -3.421875 4.9375 -4.328125 4.9375 -5.3125 L 4.9375 -16.355469 C 4.9375 -17.339844 5.625 -18.199219 6.640625 -18.199219 C 7.671875 -18.199219 8.25 -17.246094 8.25 -16.324219 L 8.25 -14.871094 C 8.25 -14.433594 8.359375 -14.246094 8.734375 -14.246094 L 11.640625 -14.246094 C 12.046875 -14.246094 12.140625 -14.449219 12.140625 -14.933594 Z M 6.734375 -24.933594 L 5.546875 -26.324219 C 5.421875 -26.496094 5.265625 -26.683594 5.0625 -26.683594 C 5.015625 -26.683594 4.984375 -26.683594 4.9375 -26.667969 L 3.1875 -26.652344 C 3.03125 -26.636719 2.875 -26.371094 3.109375 -26.121094 L 5.671875 -23.339844 C 5.71875 -23.292969 5.8125 -23.199219 6 -23.199219 L 7.4375 -23.199219 C 7.609375 -23.199219 7.734375 -23.277344 7.796875 -23.339844 L 10.375 -26.167969 C 10.609375 -26.402344 10.484375 -26.683594 10.296875 -26.699219 L 8.703125 -26.714844 C 8.65625 -26.730469 8.609375 -26.730469 8.5625 -26.730469 C 8.34375 -26.730469 8.1875 -26.636719 8 -26.433594 Z M 6.734375 -24.933594 "/></g></g></g><g fill="#001447" fill-opacity="1"><g transform="translate(220.473279, 237.377708)"><g/></g></g><g fill="#001447" fill-opacity="1"><g transform="translate(229.321507, 237.377708)"><g><path d="M 7.859375 -15.355469 C 7.859375 -14.917969 7.921875 -14.761719 8.3125 -14.761719 L 11.109375 -14.761719 C 11.609375 -14.761719 11.71875 -14.917969 11.71875 -15.355469 L 11.71875 -16.246094 C 11.71875 -19.699219 9.40625 -21.949219 6.171875 -21.949219 C 3.984375 -21.949219 0.625 -20.402344 0.625 -16.339844 C 0.625 -12.761719 2.09375 -11.734375 5.359375 -9.078125 C 7.28125 -7.515625 8.09375 -6.8125 8.09375 -5.296875 C 8.09375 -4.15625 7.296875 -3.4375 6.3125 -3.4375 C 5.515625 -3.4375 4.53125 -3.9375 4.53125 -5.5 L 4.53125 -6.203125 C 4.53125 -6.671875 4.4375 -6.84375 4 -6.84375 L 1.15625 -6.84375 C 0.71875 -6.84375 0.625 -6.625 0.625 -6.09375 L 0.625 -5.265625 C 0.625 -2.328125 2.515625 0.34375 6.28125 0.34375 C 9.734375 0.34375 12.046875 -2.15625 12.046875 -5.078125 C 12.046875 -9.03125 9.71875 -10.734375 6.796875 -12.996094 C 5.40625 -14.074219 4.484375 -14.746094 4.484375 -16.230469 C 4.484375 -17.652344 5.390625 -18.199219 6.171875 -18.199219 C 7.296875 -18.199219 7.859375 -17.308594 7.859375 -16.230469 Z M 7.859375 -15.355469 "/></g></g></g><g fill="#001447" fill-opacity="1"><g transform="translate(243.418452, 237.377708)"><g><path d="M 5.28125 -3.765625 L 5.28125 -9.0625 L 9.84375 -9.0625 C 10.140625 -9.0625 10.34375 -9.21875 10.34375 -9.59375 L 10.34375 -12.265625 C 10.34375 -12.652344 10.109375 -12.808594 9.84375 -12.808594 L 5.28125 -12.808594 L 5.28125 -17.824219 L 11 -17.824219 C 11.28125 -17.824219 11.4375 -18.011719 11.4375 -18.386719 L 11.4375 -21.042969 C 11.4375 -21.433594 11.28125 -21.621094 11 -21.621094 L 1.65625 -21.621094 C 1.328125 -21.621094 1.125 -21.386719 1.125 -21.011719 L 1.125 -0.59375 C 1.125 -0.21875 1.296875 0 1.65625 0 L 11.078125 0 C 11.328125 0 11.53125 -0.171875 11.53125 -0.546875 L 11.53125 -3.234375 C 11.53125 -3.59375 11.328125 -3.765625 11.078125 -3.765625 Z M 5.28125 -3.765625 "/></g></g></g><g fill="#001447" fill-opacity="1"><g transform="translate(256.906172, 237.377708)"><g><path d="M 1.375 -6.46875 C 1.375 -6.09375 1.546875 -5.875 1.90625 -5.875 L 4.375 -5.875 C 4.75 -5.875 4.921875 -6.09375 4.921875 -6.46875 L 4.921875 -21.042969 C 4.921875 -21.417969 4.75 -21.652344 4.375 -21.652344 L 1.90625 -21.652344 C 1.546875 -21.652344 1.375 -21.417969 1.375 -21.042969 Z M 5.0625 -3.109375 C 5.0625 -3.34375 4.953125 -3.6875 4.5625 -3.6875 L 1.6875 -3.6875 C 1.46875 -3.6875 1.21875 -3.5 1.21875 -3.109375 L 1.21875 -0.546875 C 1.21875 -0.109375 1.5625 0 1.703125 0 L 4.59375 0 C 4.71875 0 5.0625 -0.125 5.0625 -0.546875 Z M 5.0625 -3.109375 "/></g></g></g></svg>